<?xml version="1.0" encoding="utf-8"?>
<!-- Generator: Adobe Illustrator 19.0.0, SVG Export Plug-In . SVG Version: 6.00 Build 0)  -->
<svg version="1.1" xmlns="http://www.w3.org/2000/svg" xmlns:xlink="http://www.w3.org/1999/xlink" x="0px" y="0px"
	 viewBox="0 0 589 186.5" style="enable-background:new 0 0 589 186.5;" xml:space="preserve">
<style type="text/css">
	.st0{fill:none;stroke:#ffffff;stroke-width:6;stroke-miterlimit:10;}
	.st1{fill:none;stroke:#f34953;stroke-width:6;stroke-miterlimit:10;}
	.st2{fill:#f34953;}
	.st3{fill:#ffffff;}
</style>
<g id="Herzlogo">
	<path id="Bogen_rechts_2_" class="st0" d="M123.2,113.1H147c13.3,0,24.1-10.8,24.1-24.1S160.3,64.9,147,64.9h-23.8"/>
	<path id="Bogen_unten" class="st0" d="M65.1,123v23.8c0,13.3,10.8,24.1,24.1,24.1s24.1-10.8,24.1-24.1V123"/>
	<path id="Herz" class="st1" d="M65.1,113.1H31.4c-13.3,0-24.1-10.8-24.1-24.1s10.8-24.1,24.1-24.1h33.7V31.2
		c0-13.3,10.8-24.1,24.1-24.1s24.1,10.8,24.1,24.1v33.7v48.2H65.1z"/>
</g>
<g id="Praxisname">
	<g id="XMLID_44_">
		<path id="XMLID_83_" class="st2" d="M237,130.4c0,1.2-0.2,2.4-0.5,3.4c-0.3,1-0.8,2-1.3,2.8c-0.6,0.8-1.2,1.6-2,2.2
			c-0.8,0.6-1.7,1.2-2.7,1.6s-2.1,0.7-3.2,1c-1.1,0.2-2.4,0.3-3.9,0.3h-10.2c-0.5,0-0.9-0.2-1.3-0.5c-0.4-0.3-0.6-0.9-0.6-1.6v-34.9
			c0-0.8,0.2-1.3,0.6-1.6c0.4-0.3,0.9-0.5,1.3-0.5h8.9c2.3,0,4.3,0.2,5.8,0.7c1.5,0.4,2.7,1.1,3.7,1.9s1.8,1.9,2.3,3.1
			c0.5,1.2,0.8,2.6,0.8,4.2c0,0.9-0.1,1.8-0.3,2.7c-0.2,0.8-0.6,1.6-1,2.3c-0.4,0.7-1,1.4-1.6,1.9c-0.7,0.6-1.4,1-2.3,1.4
			c1.1,0.2,2.1,0.6,3,1.1c0.9,0.5,1.7,1.2,2.4,2c0.7,0.8,1.2,1.8,1.6,2.9C236.8,127.8,237,129,237,130.4z M229.2,112.8
			c0-0.9-0.1-1.8-0.4-2.6c-0.3-0.8-0.7-1.4-1.2-2c-0.6-0.5-1.3-0.9-2.2-1.2c-0.9-0.3-2.1-0.4-3.6-0.4h-5.4v12.7h5.9
			c1.3,0,2.4-0.2,3.3-0.5c0.8-0.4,1.5-0.8,2.1-1.4c0.5-0.6,0.9-1.3,1.2-2.1C229.1,114.5,229.2,113.7,229.2,112.8z M231.6,130.7
			c0-1.2-0.2-2.2-0.6-3.1c-0.4-0.9-0.9-1.6-1.6-2.2c-0.7-0.6-1.6-1.1-2.7-1.4c-1.1-0.3-2.4-0.5-4.1-0.5h-6.2v13.8h7.6
			c1.2,0,2.2-0.1,3.1-0.4c0.9-0.3,1.7-0.7,2.3-1.3c0.7-0.6,1.2-1.2,1.6-2.1C231.4,132.7,231.6,131.8,231.6,130.7z"/>
		<path id="XMLID_87_" class="st2" d="M263.4,139.5c0,0.4,0,0.7-0.1,0.9c0,0.3-0.1,0.5-0.2,0.7c-0.1,0.2-0.2,0.3-0.3,0.4
			c-0.1,0.1-0.2,0.1-0.3,0.1h-16.3c-0.4,0-0.8-0.1-1.2-0.4c-0.4-0.3-0.5-0.8-0.5-1.4v-28.2c0-0.7,0.2-1.1,0.5-1.4
			c0.4-0.3,0.7-0.4,1.2-0.4h16c0.1,0,0.3,0,0.4,0.1c0.1,0.1,0.2,0.2,0.3,0.3c0.1,0.2,0.1,0.4,0.2,0.7c0,0.3,0.1,0.6,0.1,1
			s0,0.7-0.1,0.9c0,0.3-0.1,0.5-0.2,0.6c-0.1,0.2-0.2,0.3-0.3,0.3c-0.1,0.1-0.2,0.1-0.4,0.1h-12.6v9.3h10.9c0.1,0,0.3,0,0.4,0.1
			c0.1,0.1,0.2,0.2,0.3,0.3c0.1,0.2,0.1,0.4,0.2,0.6c0,0.3,0,0.6,0,1c0,0.3,0,0.6,0,0.9c0,0.3-0.1,0.5-0.2,0.6
			c-0.1,0.2-0.2,0.3-0.3,0.3c-0.1,0.1-0.2,0.1-0.4,0.1h-10.9v10.5h12.8c0.1,0,0.2,0,0.3,0.1c0.1,0.1,0.2,0.2,0.3,0.3
			c0.1,0.2,0.1,0.4,0.2,0.6C263.4,138.9,263.4,139.2,263.4,139.5z"/>
		<path id="XMLID_89_" class="st2" d="M296.6,140.9c0,0.1,0,0.3-0.1,0.4c-0.1,0.1-0.2,0.2-0.4,0.3c-0.2,0.1-0.5,0.1-0.8,0.2
			c-0.3,0-0.8,0.1-1.3,0.1c-0.5,0-0.9,0-1.2-0.1c-0.3,0-0.6-0.1-0.8-0.2c-0.2-0.1-0.3-0.2-0.4-0.3c-0.1-0.1-0.1-0.2-0.1-0.4v-13.7
			h-14.6v13.7c0,0.1,0,0.3-0.1,0.4c-0.1,0.1-0.2,0.2-0.4,0.3c-0.2,0.1-0.5,0.1-0.8,0.2c-0.3,0-0.7,0.1-1.2,0.1c-0.5,0-0.9,0-1.2-0.1
			c-0.3,0-0.6-0.1-0.8-0.2c-0.2-0.1-0.3-0.2-0.4-0.3c-0.1-0.1-0.1-0.2-0.1-0.4v-30.6c0-0.1,0-0.3,0.1-0.4c0.1-0.1,0.2-0.2,0.4-0.3
			c0.2-0.1,0.5-0.1,0.8-0.2c0.3,0,0.7-0.1,1.2-0.1c0.5,0,0.9,0,1.2,0.1c0.3,0,0.6,0.1,0.8,0.2c0.2,0.1,0.3,0.2,0.4,0.3
			c0.1,0.1,0.1,0.2,0.1,0.4v12.5h14.6v-12.5c0-0.1,0-0.3,0.1-0.4c0.1-0.1,0.2-0.2,0.4-0.3c0.2-0.1,0.5-0.1,0.8-0.2
			c0.3,0,0.7-0.1,1.2-0.1c0.5,0,0.9,0,1.3,0.1c0.3,0,0.6,0.1,0.8,0.2c0.2,0.1,0.4,0.2,0.4,0.3c0.1,0.1,0.1,0.2,0.1,0.4V140.9z"/>
		<path id="XMLID_91_" class="st2" d="M329.5,141c0,0.1,0,0.3-0.1,0.3c-0.1,0.1-0.2,0.2-0.4,0.2c-0.2,0.1-0.5,0.1-0.9,0.1
			c-0.4,0-0.8,0-1.4,0c-0.5,0-1,0-1.3,0c-0.3,0-0.6-0.1-0.8-0.2c-0.2-0.1-0.4-0.2-0.5-0.3c-0.1-0.1-0.2-0.3-0.2-0.5l-2.6-7.3
			c-0.3-0.8-0.6-1.6-1-2.3c-0.4-0.7-0.8-1.3-1.3-1.7c-0.5-0.5-1.1-0.8-1.7-1.1c-0.7-0.3-1.5-0.4-2.6-0.4h-3.1v13.1
			c0,0.1,0,0.3-0.1,0.4c-0.1,0.1-0.2,0.2-0.4,0.3c-0.2,0.1-0.5,0.1-0.8,0.2c-0.3,0-0.7,0.1-1.2,0.1c-0.5,0-0.9,0-1.2-0.1
			c-0.3,0-0.6-0.1-0.8-0.2c-0.2-0.1-0.3-0.2-0.4-0.3c-0.1-0.1-0.1-0.2-0.1-0.4v-29.4c0-0.7,0.2-1.1,0.5-1.4c0.4-0.3,0.7-0.4,1.2-0.4
			h8.5c1.9,0,3.6,0.2,4.9,0.6c1.3,0.4,2.5,0.9,3.4,1.6c0.9,0.7,1.6,1.6,2.1,2.6c0.5,1,0.7,2.2,0.7,3.5c0,1-0.1,2-0.4,2.9
			c-0.3,0.9-0.7,1.6-1.2,2.3c-0.5,0.7-1.2,1.3-2,1.8c-0.8,0.5-1.6,0.9-2.6,1.2c0.5,0.2,1,0.5,1.5,0.8c0.5,0.3,0.9,0.7,1.2,1.2
			c0.4,0.5,0.7,1,1.1,1.7c0.3,0.6,0.7,1.4,1,2.2l2.7,7.1c0.2,0.5,0.3,0.9,0.4,1.2C329.4,140.6,329.5,140.9,329.5,141z M322.3,118.6
			c0-0.7-0.1-1.4-0.3-2c-0.2-0.6-0.6-1.1-1-1.6c-0.5-0.4-1.1-0.8-1.9-1c-0.8-0.3-1.8-0.4-3.1-0.4h-4.5v10.2h4.3
			c1.3,0,2.3-0.1,3.1-0.4c0.8-0.3,1.4-0.6,1.9-1.1c0.5-0.5,0.9-1,1.1-1.7C322.2,120.1,322.3,119.3,322.3,118.6z"/>
		<path id="XMLID_94_" class="st2" d="M355.6,139.5c0,0.4,0,0.7-0.1,0.9c0,0.3-0.1,0.5-0.2,0.7c-0.1,0.2-0.2,0.3-0.3,0.4
			c-0.1,0.1-0.2,0.1-0.3,0.1h-16.3c-0.4,0-0.8-0.1-1.2-0.4c-0.4-0.3-0.5-0.8-0.5-1.4v-28.2c0-0.7,0.2-1.1,0.5-1.4
			c0.4-0.3,0.7-0.4,1.2-0.4h16c0.1,0,0.3,0,0.4,0.1c0.1,0.1,0.2,0.2,0.3,0.3c0.1,0.2,0.1,0.4,0.2,0.7c0,0.3,0.1,0.6,0.1,1
			s0,0.7-0.1,0.9c0,0.3-0.1,0.5-0.2,0.6c-0.1,0.2-0.2,0.3-0.3,0.3c-0.1,0.1-0.2,0.1-0.4,0.1h-12.6v9.3h10.9c0.1,0,0.3,0,0.4,0.1
			c0.1,0.1,0.2,0.2,0.3,0.3c0.1,0.2,0.1,0.4,0.2,0.6c0,0.3,0,0.6,0,1c0,0.3,0,0.6,0,0.9c0,0.3-0.1,0.5-0.2,0.6
			c-0.1,0.2-0.2,0.3-0.3,0.3c-0.1,0.1-0.2,0.1-0.4,0.1h-10.9v10.5h12.8c0.1,0,0.2,0,0.3,0.1c0.1,0.1,0.2,0.2,0.3,0.3
			c0.1,0.2,0.1,0.4,0.2,0.6C355.6,138.9,355.6,139.2,355.6,139.5z"/>
		<path id="XMLID_96_" class="st2" d="M389.5,139.6c0,0.7-0.2,1.2-0.5,1.5c-0.3,0.3-0.8,0.5-1.3,0.5h-3.5c-0.6,0-1.1-0.2-1.5-0.5
			c-0.4-0.3-0.7-0.8-1.1-1.5l-8.5-15.8c-0.8-1.5-1.6-3-2.4-4.6c-0.8-1.6-1.6-3.1-2.4-4.6h0c0,0.7,0,1.4,0,2.1c0,0.7,0,1.5,0,2.3
			c0,0.8,0,1.5,0,2.3c0,0.7,0,1.5,0,2.1v17.5c0,0.1,0,0.3-0.1,0.4c-0.1,0.1-0.2,0.2-0.4,0.3c-0.2,0.1-0.4,0.1-0.7,0.2
			c-0.3,0-0.6,0.1-1.1,0.1c-0.5,0-0.9,0-1.2-0.1c-0.3,0-0.5-0.1-0.7-0.2s-0.3-0.2-0.4-0.3c-0.1-0.1-0.1-0.2-0.1-0.4v-29.3
			c0-0.7,0.2-1.2,0.6-1.5c0.4-0.3,0.8-0.5,1.3-0.5h3.8c0.3,0,0.7,0,0.9,0.1c0.3,0.1,0.5,0.2,0.7,0.3c0.2,0.2,0.4,0.3,0.6,0.6
			c0.2,0.2,0.3,0.5,0.5,0.8l7.7,14.4c0.9,1.6,1.7,3.3,2.6,4.9c0.9,1.6,1.7,3.3,2.5,4.9h0.1c0-0.8,0-1.6,0-2.5c0-0.9,0-1.7,0-2.6
			c0-0.9,0-1.7,0-2.6c0-0.9,0-1.7,0-2.5v-15.2c0-0.2,0-0.3,0.1-0.4s0.2-0.2,0.4-0.3c0.2-0.1,0.4-0.1,0.7-0.2c0.3,0,0.7-0.1,1.1-0.1
			c0.5,0,0.9,0,1.2,0.1c0.3,0,0.5,0.1,0.7,0.2c0.2,0.1,0.3,0.2,0.3,0.3s0.1,0.3,0.1,0.4V139.6z"/>
		<path id="XMLID_98_" class="st2" d="M425.3,125.2c0,2.8-0.4,5.3-1.1,7.3c-0.7,2.1-1.8,3.8-3.2,5.1c-1.4,1.4-3.1,2.4-5.1,3
			c-2,0.7-4.5,1-7.3,1H401c-0.4,0-0.8-0.1-1.2-0.4c-0.4-0.3-0.5-0.8-0.5-1.4v-28.2c0-0.7,0.2-1.1,0.5-1.4c0.4-0.3,0.7-0.4,1.2-0.4
			h8.3c2.8,0,5.2,0.3,7.1,1c1.9,0.7,3.6,1.7,4.9,3c1.3,1.3,2.3,3,3,4.9C425,120.5,425.3,122.7,425.3,125.2z M420,125.3
			c0-1.7-0.2-3.2-0.6-4.6c-0.4-1.4-1-2.6-1.9-3.7c-0.9-1-2-1.9-3.3-2.4c-1.4-0.6-3.1-0.9-5.3-0.9h-4.4v23.8h4.4
			c2.1,0,3.8-0.2,5.1-0.7c1.4-0.5,2.5-1.3,3.4-2.3c0.9-1,1.6-2.3,2-3.8C419.8,129.2,420,127.4,420,125.3z"/>
		<path id="XMLID_101_" class="st2" d="M452,111.7c0,0.7-0.1,1.3-0.2,1.6c-0.2,0.3-0.4,0.5-0.7,0.5h-8.7v27.1c0,0.1,0,0.3-0.1,0.4
			c-0.1,0.1-0.2,0.2-0.4,0.3s-0.4,0.1-0.8,0.2c-0.3,0-0.8,0.1-1.3,0.1c-0.5,0-0.9,0-1.3-0.1c-0.3,0-0.6-0.1-0.8-0.2
			c-0.2-0.1-0.3-0.2-0.4-0.3c-0.1-0.1-0.1-0.2-0.1-0.4v-27.1h-8.7c-0.1,0-0.3,0-0.4-0.1c-0.1-0.1-0.2-0.2-0.3-0.4
			c-0.1-0.2-0.1-0.4-0.2-0.7c0-0.3,0-0.6,0-1s0-0.7,0-1c0-0.3,0.1-0.5,0.2-0.7c0.1-0.2,0.2-0.3,0.3-0.4c0.1-0.1,0.2-0.1,0.4-0.1
			h22.5c0.1,0,0.3,0,0.4,0.1c0.1,0.1,0.2,0.2,0.3,0.4c0.1,0.2,0.1,0.4,0.2,0.7C452,111,452,111.3,452,111.7z"/>
	</g>
	<g id="XMLID_50_">
		<path id="XMLID_51_" class="st3" d="M231.8,36.5c0,0.4,0,0.7-0.1,1c0,0.3-0.1,0.5-0.2,0.7c-0.1,0.2-0.2,0.3-0.3,0.4
			c-0.1,0.1-0.3,0.1-0.4,0.1h-14.3V52H230c0.1,0,0.3,0,0.4,0.1c0.1,0.1,0.2,0.2,0.3,0.3c0.1,0.2,0.2,0.4,0.2,0.7
			c0,0.3,0.1,0.6,0.1,1c0,0.4,0,0.7-0.1,1c0,0.3-0.1,0.5-0.2,0.7c-0.1,0.2-0.2,0.3-0.3,0.4c-0.1,0.1-0.3,0.1-0.4,0.1h-13.6v16.3
			c0,0.1,0,0.3-0.1,0.4c-0.1,0.1-0.2,0.2-0.4,0.3c-0.2,0.1-0.5,0.1-0.8,0.2c-0.3,0.1-0.7,0.1-1.3,0.1c-0.5,0-0.9,0-1.2-0.1
			c-0.3-0.1-0.6-0.1-0.8-0.2c-0.2-0.1-0.3-0.2-0.4-0.3c-0.1-0.1-0.1-0.3-0.1-0.4V36.4c0-0.8,0.2-1.3,0.6-1.6
			c0.4-0.3,0.9-0.5,1.3-0.5h17.6c0.1,0,0.3,0,0.4,0.1c0.1,0.1,0.2,0.2,0.3,0.4c0.1,0.2,0.2,0.4,0.2,0.7
			C231.8,35.8,231.8,36.1,231.8,36.5z"/>
		<path id="XMLID_53_" class="st3" d="M261.6,71.6c0.1,0.4,0.2,0.8,0.3,1.1c0,0.3,0,0.5-0.2,0.6c-0.2,0.1-0.4,0.2-0.8,0.3
			c-0.4,0-0.9,0.1-1.6,0.1s-1.2,0-1.6,0c-0.4,0-0.7-0.1-0.9-0.1c-0.2-0.1-0.3-0.2-0.4-0.3c-0.1-0.1-0.2-0.3-0.2-0.5l-2.6-7.2H240
			l-2.5,7.1c-0.1,0.2-0.2,0.3-0.3,0.5c-0.1,0.1-0.2,0.2-0.4,0.3c-0.2,0.1-0.5,0.1-0.8,0.2s-0.8,0-1.4,0c-0.6,0-1.1,0-1.4-0.1
			c-0.4-0.1-0.6-0.1-0.7-0.3c-0.1-0.1-0.2-0.4-0.2-0.6c0-0.3,0.1-0.6,0.3-1.1l10.9-29.2c0.1-0.2,0.2-0.4,0.3-0.5
			c0.1-0.1,0.3-0.2,0.5-0.3c0.2-0.1,0.6-0.1,1-0.2s0.9,0,1.5,0c0.5,0,0.9,0,1.3,0c0.4,0,0.7,0,0.9,0.1s0.5,0.1,0.6,0.1
			c0.2,0.1,0.3,0.1,0.4,0.2c0.1,0.1,0.2,0.2,0.3,0.3c0.1,0.1,0.2,0.3,0.2,0.4L261.6,71.6z M246.7,46.3L246.7,46.3l-5.4,15.2h10.9
			L246.7,46.3z"/>
		<path id="XMLID_56_" class="st3" d="M304.1,72.7c0,0.1,0,0.3-0.1,0.4c-0.1,0.1-0.2,0.2-0.4,0.3c-0.2,0.1-0.5,0.1-0.8,0.2
			c-0.3,0-0.7,0.1-1.2,0.1c-0.5,0-0.9,0-1.2-0.1c-0.3,0-0.6-0.1-0.8-0.2s-0.3-0.2-0.4-0.3c-0.1-0.1-0.1-0.2-0.1-0.4V45.9h-0.1
			l-11.3,27c-0.1,0.2-0.3,0.4-0.7,0.5c-0.4,0.1-0.9,0.2-1.7,0.2c-0.4,0-0.8,0-1.1,0c-0.3,0-0.5-0.1-0.7-0.1s-0.3-0.1-0.4-0.2
			c-0.1-0.1-0.2-0.2-0.2-0.3l-10.9-27h-0.1v26.9c0,0.1,0,0.3-0.1,0.4c-0.1,0.1-0.2,0.2-0.4,0.3s-0.4,0.1-0.8,0.2
			c-0.3,0-0.7,0.1-1.2,0.1c-0.5,0-0.9,0-1.2-0.1c-0.3,0-0.6-0.1-0.7-0.2s-0.3-0.2-0.4-0.3c-0.1-0.1-0.1-0.2-0.1-0.4V43.4
			c0-0.7,0.2-1.2,0.6-1.5c0.4-0.3,0.8-0.5,1.3-0.5h3.3c0.6,0,1.2,0.1,1.6,0.2c0.4,0.1,0.8,0.3,1.2,0.6c0.3,0.3,0.6,0.6,0.9,1
			c0.2,0.4,0.5,0.9,0.6,1.4l9,21.7h0.1l9.3-21.6c0.2-0.6,0.5-1.1,0.7-1.5c0.3-0.4,0.5-0.8,0.9-1c0.3-0.3,0.7-0.4,1.1-0.6
			c0.4-0.1,0.9-0.2,1.5-0.2h3.1c0.5,0,0.9,0.2,1.3,0.5c0.4,0.3,0.5,0.8,0.5,1.5V72.7z"/>
		<path id="XMLID_58_" class="st3" d="M319,72.7c0,0.1,0,0.3-0.1,0.4c-0.1,0.1-0.2,0.2-0.4,0.3c-0.2,0.1-0.5,0.1-0.8,0.2
			c-0.3,0-0.7,0.1-1.2,0.1c-0.5,0-0.9,0-1.2-0.1c-0.3,0-0.6-0.1-0.8-0.2c-0.2-0.1-0.3-0.2-0.4-0.3c-0.1-0.1-0.1-0.2-0.1-0.4V42.1
			c0-0.1,0-0.2,0.1-0.3c0.1-0.1,0.2-0.2,0.4-0.3c0.2-0.1,0.5-0.1,0.8-0.2c0.3,0,0.7-0.1,1.2-0.1c0.5,0,0.9,0,1.2,0.1
			c0.3,0,0.6,0.1,0.8,0.2c0.2,0.1,0.3,0.2,0.4,0.3c0.1,0.1,0.1,0.2,0.1,0.3V72.7z"/>
		<path id="XMLID_60_" class="st3" d="M346,71.3c0,0.7-0.1,1.3-0.2,1.6c-0.2,0.3-0.4,0.5-0.7,0.5h-14.6c-0.4,0-0.8-0.1-1.2-0.4
			c-0.4-0.3-0.5-0.8-0.5-1.4V42.1c0-0.1,0-0.2,0.1-0.3c0.1-0.1,0.2-0.2,0.4-0.3c0.2-0.1,0.5-0.1,0.8-0.2c0.3,0,0.7-0.1,1.2-0.1
			c0.5,0,0.9,0,1.2,0.1c0.3,0,0.6,0.1,0.8,0.2c0.2,0.1,0.3,0.2,0.4,0.3c0.1,0.1,0.1,0.2,0.1,0.3v27.1H345c0.1,0,0.3,0,0.4,0.1
			c0.1,0.1,0.2,0.2,0.3,0.4c0.1,0.2,0.1,0.4,0.2,0.7C346,70.6,346,70.9,346,71.3z"/>
		<path id="XMLID_62_" class="st3" d="M356.2,72.7c0,0.1,0,0.3-0.1,0.4c-0.1,0.1-0.2,0.2-0.4,0.3c-0.2,0.1-0.5,0.1-0.8,0.2
			c-0.3,0-0.7,0.1-1.2,0.1c-0.5,0-0.9,0-1.2-0.1c-0.3,0-0.6-0.1-0.8-0.2c-0.2-0.1-0.3-0.2-0.4-0.3c-0.1-0.1-0.1-0.2-0.1-0.4V42.1
			c0-0.1,0-0.2,0.1-0.3c0.1-0.1,0.2-0.2,0.4-0.3c0.2-0.1,0.5-0.1,0.8-0.2c0.3,0,0.7-0.1,1.2-0.1c0.5,0,0.9,0,1.2,0.1
			c0.3,0,0.6,0.1,0.8,0.2c0.2,0.1,0.3,0.2,0.4,0.3c0.1,0.1,0.1,0.2,0.1,0.3V72.7z"/>
		<path id="XMLID_64_" class="st3" d="M384.8,71.4c0,0.4,0,0.7-0.1,0.9c0,0.3-0.1,0.5-0.2,0.7c-0.1,0.2-0.2,0.3-0.3,0.4
			c-0.1,0.1-0.2,0.1-0.3,0.1h-16.3c-0.4,0-0.8-0.1-1.2-0.4c-0.4-0.3-0.5-0.8-0.5-1.4V43.3c0-0.7,0.2-1.1,0.5-1.4
			c0.4-0.3,0.7-0.4,1.2-0.4h16c0.1,0,0.3,0,0.4,0.1c0.1,0.1,0.2,0.2,0.3,0.3c0.1,0.2,0.1,0.4,0.2,0.7c0,0.3,0.1,0.6,0.1,1
			s0,0.7-0.1,0.9c0,0.3-0.1,0.5-0.2,0.6c-0.1,0.2-0.2,0.3-0.3,0.3c-0.1,0.1-0.2,0.1-0.4,0.1h-12.6v9.3H382c0.1,0,0.3,0,0.4,0.1
			c0.1,0.1,0.2,0.2,0.3,0.3c0.1,0.2,0.1,0.4,0.2,0.6c0,0.3,0,0.6,0,1c0,0.3,0,0.6,0,0.9c0,0.3-0.1,0.5-0.2,0.6
			c-0.1,0.2-0.2,0.3-0.3,0.3c-0.1,0.1-0.2,0.1-0.4,0.1h-10.9v10.5h12.8c0.1,0,0.2,0,0.3,0.1c0.1,0.1,0.2,0.2,0.3,0.3
			c0.1,0.2,0.1,0.4,0.2,0.6C384.7,70.7,384.8,71,384.8,71.4z"/>
		<path id="XMLID_66_" class="st3" d="M418.7,71.4c0,0.7-0.2,1.2-0.5,1.5c-0.3,0.3-0.8,0.5-1.3,0.5h-3.5c-0.6,0-1.1-0.2-1.5-0.5
			c-0.4-0.3-0.7-0.8-1.1-1.5l-8.5-15.8c-0.8-1.5-1.6-3-2.4-4.6c-0.8-1.6-1.6-3.1-2.4-4.6h0c0,0.7,0,1.4,0,2.1c0,0.7,0,1.5,0,2.3
			c0,0.8,0,1.5,0,2.3c0,0.7,0,1.5,0,2.1v17.5c0,0.1,0,0.3-0.1,0.4c-0.1,0.1-0.2,0.2-0.4,0.3c-0.2,0.1-0.4,0.1-0.7,0.2
			c-0.3,0-0.6,0.1-1.1,0.1c-0.5,0-0.9,0-1.2-0.1c-0.3,0-0.5-0.1-0.7-0.2s-0.3-0.2-0.4-0.3c-0.1-0.1-0.1-0.2-0.1-0.4V43.4
			c0-0.7,0.2-1.2,0.6-1.5c0.4-0.3,0.8-0.5,1.3-0.5h3.8c0.3,0,0.7,0,0.9,0.1c0.3,0.1,0.5,0.2,0.7,0.3c0.2,0.2,0.4,0.3,0.6,0.6
			c0.2,0.2,0.3,0.5,0.5,0.8l7.7,14.4c0.9,1.6,1.7,3.3,2.6,4.9c0.9,1.6,1.7,3.3,2.5,4.9h0.1c0-0.8,0-1.6,0-2.5c0-0.9,0-1.7,0-2.6
			c0-0.9,0-1.7,0-2.6c0-0.9,0-1.7,0-2.5V42.2c0-0.2,0-0.3,0.1-0.4s0.2-0.2,0.4-0.3c0.2-0.1,0.4-0.1,0.7-0.2c0.3,0,0.7-0.1,1.1-0.1
			c0.5,0,0.9,0,1.2,0.1c0.3,0,0.5,0.1,0.7,0.2c0.2,0.1,0.3,0.2,0.3,0.3s0.1,0.3,0.1,0.4V71.4z"/>
		<path id="XMLID_68_" class="st3" d="M450.1,51c0,1.7-0.3,3.2-0.8,4.5c-0.5,1.3-1.3,2.4-2.3,3.3c-1,0.9-2.2,1.6-3.7,2.1
			c-1.4,0.5-3.2,0.7-5.2,0.7h-4.5v11.1c0,0.1,0,0.3-0.1,0.4c-0.1,0.1-0.2,0.2-0.4,0.3c-0.2,0.1-0.5,0.1-0.8,0.2
			c-0.3,0-0.7,0.1-1.2,0.1c-0.5,0-0.9,0-1.2-0.1c-0.3,0-0.6-0.1-0.8-0.2c-0.2-0.1-0.3-0.2-0.4-0.3c-0.1-0.1-0.1-0.2-0.1-0.4V43.4
			c0-0.7,0.2-1.2,0.6-1.5c0.4-0.3,0.8-0.5,1.3-0.5h8.1c0.7,0,1.4,0,2.1,0.1c0.7,0.1,1.4,0.2,2,0.3c1.2,0.2,2.2,0.6,3.1,1.1
			c0.9,0.5,1.7,1.2,2.3,2c0.6,0.8,1.1,1.7,1.5,2.7C449.9,48.7,450.1,49.8,450.1,51z M444.6,51.4c0-1.5-0.3-2.7-1-3.7
			c-0.7-1-1.6-1.7-2.9-2c-0.4-0.1-0.9-0.2-1.3-0.2c-0.5-0.1-0.9-0.1-1.4-0.1h-4.4v12.2h4.8c1.2,0,2.2-0.2,2.9-0.5
			c0.7-0.3,1.4-0.7,1.8-1.3c0.5-0.6,0.9-1.2,1.1-2C444.5,53.1,444.6,52.3,444.6,51.4z"/>
		<path id="XMLID_71_" class="st3" d="M480.8,72.8c0,0.1,0,0.3-0.1,0.3c-0.1,0.1-0.2,0.2-0.4,0.2c-0.2,0.1-0.5,0.1-0.9,0.1
			c-0.4,0-0.8,0-1.4,0c-0.5,0-1,0-1.3,0c-0.3,0-0.6-0.1-0.8-0.2c-0.2-0.1-0.4-0.2-0.5-0.3c-0.1-0.1-0.2-0.3-0.2-0.5l-2.6-7.3
			c-0.3-0.8-0.6-1.6-1-2.3c-0.4-0.7-0.8-1.3-1.3-1.7c-0.5-0.5-1.1-0.8-1.7-1.1c-0.7-0.3-1.5-0.4-2.6-0.4h-3.1v13.1
			c0,0.1,0,0.3-0.1,0.4c-0.1,0.1-0.2,0.2-0.4,0.3c-0.2,0.1-0.5,0.1-0.8,0.2c-0.3,0-0.7,0.1-1.2,0.1c-0.5,0-0.9,0-1.2-0.1
			c-0.3,0-0.6-0.1-0.8-0.2c-0.2-0.1-0.3-0.2-0.4-0.3c-0.1-0.1-0.1-0.2-0.1-0.4V43.3c0-0.7,0.2-1.1,0.5-1.4c0.4-0.3,0.7-0.4,1.2-0.4
			h8.5c1.9,0,3.6,0.2,4.9,0.6c1.3,0.4,2.5,0.9,3.4,1.6c0.9,0.7,1.6,1.6,2.1,2.6c0.5,1,0.7,2.2,0.7,3.5c0,1-0.1,2-0.4,2.9
			c-0.3,0.9-0.7,1.6-1.2,2.3c-0.5,0.7-1.2,1.3-2,1.8c-0.8,0.5-1.6,0.9-2.6,1.2c0.5,0.2,1,0.5,1.5,0.8c0.5,0.3,0.9,0.7,1.2,1.2
			c0.4,0.5,0.7,1,1.1,1.7c0.3,0.6,0.7,1.4,1,2.2l2.7,7.1c0.2,0.5,0.3,0.9,0.4,1.2C480.8,72.5,480.8,72.7,480.8,72.8z M473.6,50.4
			c0-0.7-0.1-1.4-0.3-2c-0.2-0.6-0.6-1.1-1-1.6c-0.5-0.4-1.1-0.8-1.9-1c-0.8-0.3-1.8-0.4-3.1-0.4h-4.5v10.2h4.3
			c1.3,0,2.3-0.1,3.1-0.4c0.8-0.3,1.4-0.6,1.9-1.1c0.5-0.5,0.9-1,1.1-1.7C473.5,51.9,473.6,51.2,473.6,50.4z"/>
		<path id="XMLID_74_" class="st3" d="M512.3,71.6c0.1,0.4,0.2,0.8,0.3,1.1c0,0.3,0,0.5-0.2,0.6c-0.2,0.1-0.4,0.2-0.8,0.3
			c-0.4,0-0.9,0.1-1.6,0.1s-1.2,0-1.6,0c-0.4,0-0.7-0.1-0.9-0.1c-0.2-0.1-0.3-0.2-0.4-0.3c-0.1-0.1-0.2-0.3-0.2-0.5l-2.6-7.2h-13.6
			l-2.5,7.1c-0.1,0.2-0.2,0.3-0.3,0.5c-0.1,0.1-0.2,0.2-0.4,0.3c-0.2,0.1-0.5,0.1-0.8,0.2s-0.8,0-1.4,0c-0.6,0-1.1,0-1.4-0.1
			c-0.4-0.1-0.6-0.1-0.7-0.3c-0.1-0.1-0.2-0.4-0.2-0.6c0-0.3,0.1-0.6,0.3-1.1l10.9-29.2c0.1-0.2,0.2-0.4,0.3-0.5
			c0.1-0.1,0.3-0.2,0.5-0.3c0.2-0.1,0.6-0.1,1-0.2s0.9,0,1.5,0c0.5,0,0.9,0,1.3,0c0.4,0,0.7,0,0.9,0.1s0.5,0.1,0.6,0.1
			c0.2,0.1,0.3,0.1,0.4,0.2c0.1,0.1,0.2,0.2,0.3,0.3c0.1,0.1,0.2,0.3,0.2,0.4L512.3,71.6z M497.4,46.3L497.4,46.3l-5.4,15.2h10.9
			L497.4,46.3z"/>
		<path id="XMLID_77_" class="st3" d="M539.7,71.5c0.3,0.5,0.5,0.9,0.5,1.2s0,0.4-0.2,0.6c-0.2,0.1-0.5,0.2-0.9,0.3
			c-0.4,0.1-0.9,0.1-1.6,0.1c-0.6,0-1.1,0-1.5,0c-0.4,0-0.7-0.1-0.9-0.2c-0.2-0.1-0.4-0.2-0.5-0.3c-0.1-0.1-0.2-0.3-0.3-0.4
			l-6.9-11.5l-0.3-0.7l-0.3,0.7l-6.9,11.5c-0.1,0.2-0.2,0.3-0.3,0.4c-0.1,0.1-0.3,0.2-0.5,0.3c-0.2,0.1-0.5,0.1-0.8,0.2
			c-0.4,0-0.8,0-1.3,0c-0.6,0-1.1,0-1.5-0.1c-0.4-0.1-0.7-0.1-0.9-0.3c-0.2-0.1-0.3-0.3-0.2-0.6s0.2-0.6,0.5-1.1l9.1-14.4l-8.6-13.9
			c-0.2-0.4-0.4-0.8-0.4-1.1c-0.1-0.3,0-0.5,0.2-0.6c0.2-0.1,0.5-0.2,0.9-0.3c0.4,0,1-0.1,1.7-0.1c0.6,0,1,0,1.4,0
			c0.3,0,0.6,0.1,0.8,0.2c0.2,0.1,0.4,0.2,0.5,0.3c0.1,0.1,0.2,0.3,0.3,0.4l6.6,10.7l0.5,0.8l0.4-0.8l6.4-10.6
			c0.1-0.2,0.2-0.3,0.3-0.5c0.1-0.1,0.2-0.2,0.4-0.3c0.2-0.1,0.5-0.1,0.8-0.2c0.3,0,0.8,0,1.4,0c0.7,0,1.2,0,1.6,0.1
			c0.4,0.1,0.7,0.2,0.8,0.3c0.2,0.1,0.2,0.3,0.1,0.6c-0.1,0.3-0.2,0.6-0.4,1L530.6,57L539.7,71.5z"/>
		<path id="XMLID_79_" class="st3" d="M552,72.7c0,0.1,0,0.3-0.1,0.4c-0.1,0.1-0.2,0.2-0.4,0.3c-0.2,0.1-0.5,0.1-0.8,0.2
			c-0.3,0-0.7,0.1-1.2,0.1c-0.5,0-0.9,0-1.2-0.1c-0.3,0-0.6-0.1-0.8-0.2c-0.2-0.1-0.3-0.2-0.4-0.3c-0.1-0.1-0.1-0.2-0.1-0.4V42.1
			c0-0.1,0-0.2,0.1-0.3c0.1-0.1,0.2-0.2,0.4-0.3c0.2-0.1,0.5-0.1,0.8-0.2c0.3,0,0.7-0.1,1.2-0.1c0.5,0,0.9,0,1.2,0.1
			c0.3,0,0.6,0.1,0.8,0.2c0.2,0.1,0.3,0.2,0.4,0.3c0.1,0.1,0.1,0.2,0.1,0.3V72.7z"/>
		<path id="XMLID_81_" class="st3" d="M580,64.5c0,1.5-0.3,2.8-0.9,4c-0.6,1.2-1.4,2.2-2.4,3c-1,0.8-2.3,1.4-3.7,1.9
			c-1.4,0.4-3,0.7-4.7,0.7c-1,0-2-0.1-3-0.3c-1-0.2-1.8-0.4-2.6-0.7c-0.8-0.3-1.4-0.5-2-0.8c-0.5-0.3-0.9-0.5-1-0.7
			c-0.2-0.2-0.3-0.3-0.3-0.4c-0.1-0.1-0.1-0.2-0.2-0.4c0-0.2-0.1-0.3-0.1-0.6c0-0.2,0-0.5,0-0.8c0-0.4,0-0.8,0-1
			c0-0.3,0.1-0.5,0.1-0.7c0.1-0.2,0.2-0.3,0.3-0.4c0.1-0.1,0.2-0.1,0.4-0.1c0.2,0,0.6,0.1,1,0.4c0.5,0.3,1,0.6,1.7,1
			c0.7,0.4,1.5,0.7,2.5,1c1,0.3,2.1,0.4,3.3,0.4c0.9,0,1.7-0.1,2.5-0.3c0.8-0.2,1.4-0.5,2-1c0.6-0.4,1-0.9,1.3-1.5
			c0.3-0.6,0.5-1.3,0.5-2c0-0.8-0.2-1.5-0.7-2.2c-0.4-0.6-1-1.2-1.7-1.6c-0.7-0.5-1.5-0.9-2.4-1.3c-0.9-0.4-1.8-0.8-2.8-1.2
			c-0.9-0.4-1.9-0.9-2.8-1.4s-1.7-1.1-2.4-1.8c-0.7-0.7-1.3-1.5-1.7-2.5c-0.4-1-0.6-2.1-0.6-3.4c0-1.3,0.3-2.5,0.8-3.5
			c0.5-1.1,1.3-2,2.2-2.7c0.9-0.7,2-1.3,3.3-1.7c1.3-0.4,2.6-0.6,4.1-0.6c0.8,0,1.7,0.1,2.5,0.2c0.8,0.2,1.6,0.4,2.3,0.6
			c0.7,0.2,1.3,0.5,1.8,0.7c0.5,0.3,0.8,0.5,1,0.6c0.1,0.2,0.2,0.3,0.3,0.4c0.1,0.1,0.1,0.3,0.2,0.4c0.1,0.2,0.1,0.4,0.1,0.6
			c0,0.2,0,0.5,0,0.8c0,0.4,0,0.7,0,1c0,0.3-0.1,0.5-0.1,0.7c-0.1,0.2-0.2,0.3-0.2,0.4c-0.1,0.1-0.2,0.1-0.3,0.1
			c-0.2,0-0.5-0.1-0.9-0.4c-0.4-0.3-0.9-0.5-1.5-0.8c-0.6-0.3-1.3-0.6-2.2-0.8c-0.8-0.3-1.8-0.4-2.8-0.4c-0.8,0-1.5,0.1-2.1,0.3
			c-0.6,0.2-1.2,0.5-1.6,0.9c-0.4,0.4-0.8,0.8-1,1.3s-0.4,1.1-0.4,1.6c0,0.9,0.2,1.6,0.7,2.2c0.4,0.6,1,1.2,1.7,1.6
			c0.7,0.5,1.5,0.9,2.4,1.3s1.8,0.8,2.8,1.2c0.9,0.4,1.9,0.9,2.8,1.4c0.9,0.5,1.7,1.1,2.4,1.8c0.7,0.7,1.3,1.5,1.7,2.5
			C579.8,62.1,580,63.2,580,64.5z"/>
	</g>
	<g id="Pfadlinie__x2B__Männekins_2_">
		<g id="XMLID_34_">
			<path id="XMLID_38_" class="st3" d="M159.1,179.4c13.9-9.8,33.7-12.6,50.4-12.7c10.5-0.1,21.1,0.1,31.6,0.3
				c41.6,0.5,83.2,0.8,124.8,0.5c13.9-0.1,27.7-0.2,41.6-0.5c11.5-0.2,23-0.2,34.4-1.6c13.1-1.6,26.2-4.9,37.6-11.7
				c10.9-6.5,22.8-20.8,15.4-34.1c-2-3.6-4.6-4.9-8.3-3c-5.1,2.6-5.7,8.6-5.9,13.8c-0.3,11.2,1.2,30.7,14.2,35
				c7.2,2.4,15.9-1.9,20.8-7.2c3-3.3,5-7.5,5.2-12c0.1-3.9-1-12.9-6.6-11.3c-12.7,3.7-6.4,28.8,2.6,33.1c7.1,3.4,16.7-4.3,21.3-8.9
				c8.8-8.6,16.1-20.3,19.2-32.3c1.8-7,1.6-21.8-9.7-20c-10.3,1.7-10.8,14.8-10.7,22.9c0.1,7.4,1.2,14.9,3.1,22.1
				c1.5,5.8,3.7,13.6,8.7,17.5c8.4,6.7,20.4-4.7,25.5-10.6c2.4-2.8,4.7-5.8,6.7-8.9c-0.2,0.4-2.7,0.6-3.3,1.5
				c-4.1,6.4-12.4,18.9-20.8,18.3c-10.8-0.8-14-20-15.3-28.1c-1.5-9.2-3.7-24.2,2.6-32.2c0.8-1,0-0.9,1.5-0.8c1,0,1.9,0.3,2.8,0.7
				c1.8,0.7,3.5,1.9,4.6,3.5c2.3,3.2,2.4,7.5,1.9,11.3c-1.4,10.9-7.5,21.6-14.2,30.1c-4.6,5.9-14.7,18.2-22.7,10.7
				c-5.6-5.3-8.2-15.5-6.9-22.9c0.3-1.5,0.7-3.1,1.4-4.4c0.2-0.5,0.5-0.8,0.8-1.3c0.7-1.1-0.5-0.3,0,0.2c2.4,2.3,3.4,4.7,4,8.2
				c1.2,8.2-4.4,18.7-13.3,19.7c-10.6,1.1-16.2-9.2-18.3-18c-1.8-7.7-3.7-19.8,0.2-27.5c0.3-0.5,1.3-1.5,1.4-2
				c0.2-1.1-1,0.7-1.1,0.5c0,0,1,0,1.1,0.1c1.3,0.9,2.3,1.2,3.4,2.5c2.5,3.3,3.2,8,2.8,12.1c-1.9,20.7-26.2,28.3-43.3,31.1
				c-20.2,3.3-41.1,2.4-61.6,2.6c-21.4,0.2-42.9,0.3-64.3,0.3c-30.8-0.1-61.7-0.4-92.5-0.8c-20.2-0.2-39.9-0.2-59.2,7
				c-5.9,2.2-11.5,5-16.6,8.6C155.8,180.8,158.4,179.8,159.1,179.4L159.1,179.4z"/>
		</g>
	</g>
	<g id="Kopf_links_2_">
		<g id="XMLID_29_">
			<path id="XMLID_30_" class="st3" d="M493.6,100.8c0,0,0,0.6,0,1.7c0,0.6,0,1.2,0,2.1c0,0.8-0.1,1.8-0.6,2.8c-0.2,0.5-0.5,1-1,1.5
				c-0.4,0.5-1.1,0.9-1.9,1.1c-0.2,0-0.4,0.1-0.6,0.1l-0.3,0l-0.2,0l-0.1,0l0,0l0,0l-0.1,0c-0.2,0-0.2-0.1-0.4-0.1
				c-0.2-0.1-0.5-0.2-0.7-0.2c-0.7-0.4-1.2-0.9-1.6-1.5c-0.4-0.6-0.6-1.2-0.9-1.8c-0.2-0.6-0.4-1.2-0.6-1.8
				c-0.3-1.2-0.7-2.5-0.9-3.8c0-0.4-0.1-0.6-0.1-1c0-0.3-0.1-0.7-0.1-1c0-0.7,0.1-1.4,0.2-2c0.3-1.3,0.8-2.7,1.7-3.8
				c0.5-0.6,1.1-1.1,2-1.5c0.4-0.1,0.9-0.3,1.3-0.3l0.1,0l0,0l0,0l0.2,0l0.1,0l0.2,0c0.1,0,0.4,0.1,0.6,0.1c1.8,0.6,2.5,1.8,2.9,2.8
				c0.4,1,0.5,2,0.5,2.8c0,0.8,0,1.5,0,2.1C493.7,100.1,493.6,100.8,493.6,100.8z M493.4,100.7c0,0,0-0.2,0-0.4
				c0-0.3-0.1-0.7-0.2-1.2c-0.1-0.5-0.4-1.1-0.7-1.8c-0.4-0.6-0.9-1.3-1.4-1.8c-0.3-0.3-0.6-0.5-0.8-0.7c-0.1-0.1-0.3-0.2-0.4-0.2
				c-0.1,0-0.1-0.1-0.2-0.1l-0.1,0c0,0,0,0,0,0c0,0,0,0-0.1,0l-0.2,0l-0.1,0c-0.1,0,0.2,0,0.1,0l0,0l0,0l0,0c-0.1,0-0.2,0-0.3,0.1
				c-0.2,0.1-0.5,0.3-0.8,0.5c-0.6,0.6-1.1,1.5-1.5,2.5c-0.2,0.5-0.4,1-0.5,1.6c-0.1,0.3-0.2,0.5-0.2,0.8c-0.1,0.3-0.1,0.6-0.2,0.9
				c-0.2,1.2-0.2,2.4,0.1,3.5c0.3,1.1,0.9,2.2,1.8,2.8c0.4,0.3,0.8,0.5,1.2,0.5c0.1,0,0.1,0,0.1,0c0.1,0,0.3,0,0.4,0l0.1,0l0,0l0,0
				c0,0-0.2,0-0.1,0l0,0l0.1,0c0.1,0,0.1,0,0.2-0.1c0.5-0.2,1-0.7,1.6-1.3c0.5-0.6,1-1.2,1.4-1.9c0.4-0.6,0.6-1.3,0.7-1.8
				c0.1-0.5,0.2-0.9,0.2-1.2C493.3,100.9,493.4,100.7,493.4,100.7z"/>
		</g>
	</g>
	<g id="Kopf_mitte_2_">
		<g id="XMLID_24_">
			<path id="XMLID_25_" class="st3" d="M518.1,123c0,0,0,0.4,0,1.2c0,0.4,0.1,0.9,0.1,1.5c0,0.6-0.1,1.4-0.4,2.1
				c-0.4,0.7-1.1,1.6-2.3,1.8c-0.2,0-0.3,0.1-0.5,0.1l-0.2,0l-0.1,0l-0.1,0l0,0l0,0l0,0l-0.3-0.1c-0.2-0.1-0.3-0.1-0.5-0.2
				c-0.6-0.3-1-0.7-1.2-1.1c-0.6-0.9-0.8-1.8-1.2-2.6c-0.3-0.9-0.6-1.8-0.8-2.8c0-0.2-0.1-0.4-0.1-0.7c0-0.3-0.1-0.5-0.1-0.8
				c0-0.5,0-1,0.1-1.5c0.2-1,0.6-2,1.5-2.9c0.4-0.4,1-0.8,1.6-1c0.3-0.1,0.7-0.2,1-0.2l0.1,0l0,0l0.2,0l0.1,0l0.1,0l0.2,0l0.3,0.1
				c0.4,0.1,0.7,0.2,0.9,0.4c0.2,0.2,0.5,0.3,0.7,0.5c0.4,0.4,0.6,0.8,0.8,1.2c0.3,0.8,0.4,1.5,0.4,2.2c0,0.6,0,1.1-0.1,1.5
				C518.1,122.5,518.1,123,518.1,123z M517.9,123c0,0,0-0.1,0-0.3c0-0.2-0.1-0.5-0.2-0.9c-0.1-0.4-0.3-0.8-0.7-1.2
				c-0.3-0.4-0.8-0.8-1.2-1.1c-0.2-0.1-0.4-0.3-0.6-0.3c-0.1,0-0.2-0.1-0.2-0.1c-0.1,0-0.2,0-0.1,0c0,0,0,0,0,0c0,0-0.1,0-0.1,0
				l-0.1,0l-0.1,0c-0.1,0,0.2,0,0.1,0l0,0l0,0l0,0c0,0-0.1,0-0.1,0c-0.1,0-0.3,0.1-0.5,0.2c-0.4,0.3-0.8,0.8-1.1,1.5
				c-0.1,0.3-0.3,0.7-0.4,1c-0.1,0.2-0.1,0.4-0.2,0.5c-0.1,0.2-0.1,0.4-0.2,0.6c-0.2,0.8-0.2,1.7,0,2.4c0.2,0.8,0.8,1.5,1.4,1.7
				c0.3,0.1,0.6,0.2,0.8,0.2c0,0,0,0,0.1,0l0.3,0l0,0l0,0l0,0c0,0-0.2,0-0.1,0l0,0l0.1,0c0,0,0.1,0,0.1-0.1c0.3-0.1,0.6-0.4,1-0.7
				c0.4-0.3,0.8-0.7,1.2-1.1c0.3-0.4,0.5-0.8,0.7-1.2c0.1-0.4,0.2-0.7,0.2-0.9C517.8,123.1,517.9,123,517.9,123z"/>
		</g>
	</g>
	<g id="Kopf_rechts_2_">
		<g id="XMLID_8_">
			<path id="XMLID_17_" class="st3" d="M554.9,92.8c0,0,0,0.2,0,0.6c0,0.4,0,0.9-0.1,1.6c0,0.7-0.1,1.6-0.3,2.6
				c-0.2,1-0.5,2.2-1.2,3.3c-0.7,1.1-2,2.3-3.8,2.6c-0.2,0-0.4,0.1-0.7,0.1l-0.3,0l-0.2,0l-0.1,0l0,0l0,0l-0.1,0l-0.5-0.1
				c-0.2-0.1-0.5-0.1-0.7-0.2c-0.9-0.3-1.5-0.9-2.1-1.5c-1.1-1.2-1.8-2.7-2.4-4.2c-0.6-1.5-1-3.1-1.2-4.8c0-0.5-0.1-0.8-0.1-1.2
				c0-0.4,0-0.9,0-1.3c0-0.9,0.2-1.7,0.5-2.5c0.5-1.6,1.4-3.2,2.8-4.5c0.7-0.6,1.5-1.1,2.5-1.4c0.9-0.3,1.9-0.2,2.7-0.1
				c1,0.2,1.7,0.6,2.4,1.1c0.7,0.5,1.1,1.1,1.5,1.7c0.7,1.2,1,2.4,1.2,3.4c0.2,1,0.2,1.9,0.3,2.6c0,0.7,0,1.3,0,1.6
				C554.9,92.6,554.9,92.8,554.9,92.8L554.9,92.8z M554.6,92.8c0,0,0-0.2,0-0.6c0-0.4-0.1-0.9-0.3-1.6c-0.2-0.7-0.5-1.4-1-2.2
				c-0.5-0.8-1.2-1.6-1.9-2.2c-0.4-0.3-0.8-0.6-1.2-0.8c-0.2-0.1-0.4-0.2-0.6-0.3c-0.2-0.1-0.4-0.1-0.6-0.1
				c-0.5-0.1-0.9-0.1-1.4,0.1c-0.4,0.1-0.9,0.3-1.3,0.7c-0.9,0.7-1.7,1.7-2.3,3c-0.3,0.6-0.5,1.3-0.7,2c-0.1,0.3-0.2,0.7-0.3,1
				c-0.1,0.3-0.1,0.8-0.2,1.1c-0.2,1.5-0.1,3,0.4,4.4c0.3,0.7,0.6,1.4,1,1.9c0.5,0.6,1,1,1.5,1.4c0.6,0.3,1.2,0.5,1.7,0.5
				c0.1,0,0.2,0,0.3,0l0.5,0l0.3-0.1c0.1,0,0.2,0,0.3-0.1c0.9-0.2,1.7-0.8,2.5-1.5c0.7-0.7,1.4-1.5,1.9-2.3c0.5-0.8,0.8-1.6,1-2.2
				c0.2-0.7,0.2-1.2,0.2-1.6C554.6,92.9,554.6,92.7,554.6,92.8L554.6,92.8z"/>
		</g>
	</g>
</g>
</svg>
